<svg id="Logiño" xmlns="http://www.w3.org/2000/svg" viewBox="0 0 180.18 200.05"><defs><style>.cls-1{fill:#091a26;}.cls-2{fill:#d1a77d;}.cls-3{fill:#f3e8cc;}.cls-4{fill:#eac882;}.cls-5{fill:#79372a;}.cls-6{font-size:23px;fill:#231f20;font-family:Cinzel-Black, Cinzel;font-weight:800;}.cls-7{letter-spacing:-0.02em;}.cls-8{letter-spacing:-0.02em;}.cls-9{letter-spacing:-0.02em;}.cls-10{letter-spacing:-0.01em;}.cls-11{letter-spacing:-0.01em;}</style></defs><polygon class="cls-1" points="0 81.57 95.58 0 125.22 31.58 0 138.44 0 81.57"/><polygon class="cls-2" points="128.52 35.12 179.56 89.49 179.56 152.73 95.58 63.23 128.52 35.12"/><polygon class="cls-3" points="91.91 66.37 121.53 97.96 40.44 167.17 0 167.17 0 144.81 91.91 66.37"/><polygon class="cls-4" points="47.88 167.17 84.74 135.72 114.26 167.17 47.88 167.17"/><polygon class="cls-5" points="88.42 132.58 124.84 101.49 179.56 159.79 179.56 167.17 120.88 167.17 88.42 132.58"/><text class="cls-6" transform="translate(1.62 192.99)">F<tspan class="cls-7" x="14.51" y="0">U</tspan><tspan x="33.6" y="0">R</tspan><tspan class="cls-8" x="51.84" y="0">N</tspan><tspan x="71.64" y="0">I </tspan><tspan class="cls-9" x="87.01" y="0">H</tspan><tspan class="cls-10" x="107.09" y="0">O</tspan><tspan x="127.56" y="0">U</tspan><tspan class="cls-11" x="146.99" y="0">S</tspan><tspan x="161.6" y="0">E</tspan></text></svg>