<svg xmlns="http://www.w3.org/2000/svg" viewBox="0 0 195.66 187.79"><defs><style>.cls-1{fill:#091a26;}.cls-2{fill:#d1a77d;}.cls-3{fill:#f3e8cc;}.cls-4{fill:#eac882;}.cls-5{fill:#79372a;}.cls-6{font-size:30px;fill:#fff;font-family:Cinzel-ExtraBold, Cinzel;font-weight:800;}.cls-7{letter-spacing:-0.02em;}.cls-8{letter-spacing:-0.01em;}.cls-9{letter-spacing:-0.02em;}.cls-10{font-size:27px;}.cls-11{letter-spacing:-0.02em;}.cls-12{letter-spacing:-0.02em;}.cls-13{letter-spacing:-0.01em;}</style></defs><g id="Logiño"><polygon class="cls-1" points="41.22 54.2 104.72 0 124.42 20.98 41.22 91.98 41.22 54.2"/><polygon class="cls-2" points="126.61 23.34 160.52 59.46 160.52 101.48 104.72 42.01 126.61 23.34"/><polygon class="cls-3" points="102.28 44.1 121.97 65.08 68.08 111.07 41.22 111.07 41.22 96.21 102.28 44.1"/><polygon class="cls-4" points="73.03 111.07 97.52 90.17 117.13 111.07 73.03 111.07"/><polygon class="cls-5" points="99.96 88.09 124.16 67.43 160.52 106.17 160.52 111.07 121.53 111.07 99.96 88.09"/><text class="cls-6" transform="translate(46.14 144.9)">F<tspan class="cls-7" x="18.36" y="0">U</tspan><tspan class="cls-8" x="42.87" y="0">R</tspan><tspan class="cls-9" x="65.73" y="0">N</tspan><tspan x="91.35" y="0">I </tspan><tspan class="cls-10"><tspan class="cls-11" x="0.21" y="24">H</tspan><tspan class="cls-12" x="23.33" y="24">O</tspan><tspan x="46.98" y="24">U</tspan><tspan class="cls-13" x="69.44" y="24">S</tspan><tspan x="85.67" y="24">E</tspan></tspan></text></g></svg>